<svg width="324" height="72" viewBox="0 0 324 72" fill="none" xmlns="http://www.w3.org/2000/svg">
<path fill-rule="evenodd" clip-rule="evenodd" d="M18 0C27.813 0 37.2241 3.74017 44.1629 10.3977C51.1018 17.0552 55 26.0848 55 35.5C55 44.9152 51.1018 53.9447 44.163 60.6023C37.2241 67.2598 27.813 71 18 71H0V1.72853e-06L18 0ZM30.8292 47.8091C27.4267 51.0737 22.8119 52.9077 18 52.9077L18 18.0923C22.8119 18.0923 27.4267 19.9263 30.8292 23.1909C34.2317 26.4555 36.1432 30.8832 36.1432 35.5C36.1432 40.1168 34.2317 44.5445 30.8292 47.8091ZM151.477 70.9893C156.954 70.9893 162.089 69.5249 166.513 66.9662V70.9893H181.549V40.9171V38.2637H181.433C180.09 22.8981 167.191 10.8449 151.477 10.8449C134.868 10.8449 121.404 24.3087 121.404 40.9171C121.404 57.5255 134.868 70.9893 151.477 70.9893ZM204 11.1553H187V71.1553H204V41.0723H204.182C204.182 37.1613 205.735 33.4106 208.501 30.6452C211.266 27.8797 215.017 26.3261 218.928 26.3261C222.839 26.3261 226.589 27.8797 229.355 30.6452C232.12 33.4106 233.674 37.1613 233.674 41.0723H249C249 33.0966 245.832 25.4476 240.192 19.808C234.552 14.1684 226.903 11.0001 218.928 11.0001C213.646 11.0001 208.507 12.3897 204 14.9666V11.1553ZM233.964 71.1445V41.0723H249V71.1445H233.964ZM119.635 41.3246C119.628 34.678 117.385 28.2267 113.268 23.0079C109.144 17.7799 103.379 14.0936 96.9031 12.5435C90.4272 10.9933 83.6179 11.6698 77.5735 14.4636C71.5291 17.2575 66.602 22.006 63.5869 27.9431C60.5718 33.8802 59.6445 40.6599 60.9546 47.1886C62.2646 53.7173 65.7356 59.6145 70.8077 63.9288C75.8798 68.2432 82.2574 70.7233 88.9117 70.9691C95.566 71.2149 102.109 69.2121 107.486 65.2837L98.577 53.0908C95.9406 55.0172 92.7321 55.9993 89.4691 55.8787C86.2061 55.7582 83.0788 54.5421 80.5917 52.4265C78.8802 50.9707 77.5405 49.1473 76.662 47.1085H119.635V41.6692V41.3594V41.3249L119.635 41.3246ZM103.397 35.7243L76.6558 35.6248C76.7781 35.3399 76.9099 35.0584 77.0509 34.7806C78.5294 31.8693 80.9454 29.5409 83.9093 28.1709C86.8733 26.8009 90.2122 26.4692 93.3877 27.2293C96.5633 27.9894 99.3902 29.797 101.412 32.3606C102.228 33.3944 102.894 34.5268 103.397 35.7243ZM136.73 40.9171C136.73 49.0612 143.332 55.6632 151.477 55.6632C159.621 55.6632 166.223 49.0612 166.223 40.9171C166.223 32.7731 159.621 26.171 151.477 26.171C143.332 26.171 136.73 32.7731 136.73 40.9171Z" fill="#FF6767"/>
<path d="M262.92 71V67.808H266.472C267.144 67.808 267.672 67.624 268.056 67.256C268.456 66.872 268.656 66.376 268.656 65.768C268.656 65.368 268.568 65.016 268.392 64.712C268.216 64.392 267.96 64.152 267.624 63.992C267.304 63.816 266.92 63.728 266.472 63.728H262.92V60.632H266.208C266.768 60.632 267.224 60.496 267.576 60.224C267.944 59.936 268.128 59.496 268.128 58.904C268.128 58.312 267.944 57.88 267.576 57.608C267.224 57.32 266.768 57.176 266.208 57.176H262.92V53.984H267.24C268.296 53.984 269.208 54.184 269.976 54.584C270.76 54.984 271.36 55.52 271.776 56.192C272.192 56.864 272.4 57.624 272.4 58.472C272.4 59.608 272.008 60.552 271.224 61.304C270.456 62.04 269.336 62.496 267.864 62.672V61.232C269.496 61.424 270.744 61.952 271.608 62.816C272.472 63.664 272.904 64.736 272.904 66.032C272.904 66.992 272.664 67.848 272.184 68.6C271.704 69.336 271.024 69.92 270.144 70.352C269.28 70.784 268.256 71 267.072 71H262.92ZM259.512 71V53.984H263.736V71H259.512ZM275.121 71V53.984H279.417V71H275.121ZM278.529 71V67.376H287.745V71H278.529ZM278.529 64.088V60.56H286.881V64.088H278.529ZM278.529 57.608V53.984H287.601V57.608H278.529ZM293.828 71V54.104H298.124V71H293.828ZM288.62 57.68V53.984H303.332V57.68H288.62ZM302.045 71L308.645 53.984H312.797L319.325 71H314.837L309.917 56.696H311.477L306.437 71H302.045ZM306.053 68.024V64.616H315.437V68.024H306.053Z" fill="#494949"/>
</svg>
